<svg width="20" height="20" viewBox="0 0 20 20" fill="none" xmlns="http://www.w3.org/2000/svg">
<path fill-rule="evenodd" clip-rule="evenodd" d="M4.65499 3.82171C4.16666 4.31004 4.16666 5.09504 4.16666 6.66671V14.1667C4.16666 15.7384 4.16666 16.5234 4.65499 17.0117C5.14332 17.5 5.92832 17.5 7.49999 17.5H12.5C14.0717 17.5 14.8567 17.5 15.345 17.0117C15.8333 16.5234 15.8333 15.7384 15.8333 14.1667V6.66671C15.8333 5.09504 15.8333 4.31004 15.345 3.82171C14.8567 3.33337 14.0717 3.33337 12.5 3.33337H7.49999C5.92832 3.33337 5.14332 3.33337 4.65499 3.82171ZM7.49999 6.66671C7.27898 6.66671 7.06701 6.75451 6.91073 6.91079C6.75445 7.06707 6.66666 7.27903 6.66666 7.50004C6.66666 7.72105 6.75445 7.93302 6.91073 8.0893C7.06701 8.24558 7.27898 8.33337 7.49999 8.33337H12.5C12.721 8.33337 12.933 8.24558 13.0892 8.0893C13.2455 7.93302 13.3333 7.72105 13.3333 7.50004C13.3333 7.27903 13.2455 7.06707 13.0892 6.91079C12.933 6.75451 12.721 6.66671 12.5 6.66671H7.49999ZM7.49999 10C7.27898 10 7.06701 10.0878 6.91073 10.2441C6.75445 10.4004 6.66666 10.6124 6.66666 10.8334C6.66666 11.0544 6.75445 11.2663 6.91073 11.4226C7.06701 11.5789 7.27898 11.6667 7.49999 11.6667H12.5C12.721 11.6667 12.933 11.5789 13.0892 11.4226C13.2455 11.2663 13.3333 11.0544 13.3333 10.8334C13.3333 10.6124 13.2455 10.4004 13.0892 10.2441C12.933 10.0878 12.721 10 12.5 10H7.49999ZM7.49999 13.3334C7.27898 13.3334 7.06701 13.4212 6.91073 13.5775C6.75445 13.7337 6.66666 13.9457 6.66666 14.1667C6.66666 14.3877 6.75445 14.5997 6.91073 14.756C7.06701 14.9122 7.27898 15 7.49999 15H10.8333C11.0543 15 11.2663 14.9122 11.4226 14.756C11.5789 14.5997 11.6667 14.3877 11.6667 14.1667C11.6667 13.9457 11.5789 13.7337 11.4226 13.5775C11.2663 13.4212 11.0543 13.3334 10.8333 13.3334H7.49999Z" fill="#94969A"/>
</svg>
