<svg width="20" height="20" viewBox="0 0 20 20" fill="none" xmlns="http://www.w3.org/2000/svg">
<path d="M19.0833 17.6667L15.6667 14.25C16 13.4167 15.8333 12.3334 15.0833 11.6667C14.3333 10.9167 13.25 10.75 12.3333 11.1667L13.9167 12.75L12.75 13.9167L11.0833 12.25C10.6667 13.1667 10.8333 14.25 11.5833 15.0834C12.3333 15.8334 13.3333 16 14.1667 15.6667L17.5833 19.0834C17.75 19.25 18 19.25 18.0833 19.0834L18.9167 18.25C19.1667 18 19.1667 17.75 19.0833 17.6667ZM10.8333 16.6667H1.66666V15C1.66666 13.1667 4.66666 11.6667 8.33332 11.6667C8.74999 11.6667 9.16666 11.6667 9.49999 11.75C9.24999 12.25 9.16666 12.75 9.16666 13.3334C9.16666 14.6667 9.83332 15.9167 10.8333 16.6667ZM8.33332 3.33337C6.49999 3.33337 4.99999 4.83337 4.99999 6.66671C4.99999 8.50004 6.49999 10 8.33332 10C10.1667 10 11.6667 8.50004 11.6667 6.66671C11.6667 4.83337 10.1667 3.33337 8.33332 3.33337Z" fill="#94969A"/>
</svg>
