<svg width="140" height="140" viewBox="0 0 140 140" fill="none" xmlns="http://www.w3.org/2000/svg">
<rect width="140" height="140" rx="70" fill="white"/>
<path d="M48.0167 52.4667H17.5167C16.9644 52.4667 16.5167 52.9144 16.5167 53.4667V60.4667C16.5167 61.019 16.9644 61.4667 17.5167 61.4667H48.0167C48.569 61.4667 49.0167 61.019 49.0167 60.4667V53.4667C49.0167 52.9144 48.569 52.4667 48.0167 52.4667Z" fill="#1778F2"/>
<path d="M31.7238 65.2596L20.3096 76.6738C20.1221 76.8613 20.0167 77.1157 20.0167 77.3809V86.0153C20.0167 86.9114 21.1046 87.3551 21.7314 86.7147L41.3534 66.6661C41.973 66.0331 41.5245 64.9667 40.6388 64.9667H32.4309C32.1657 64.9667 31.9114 65.072 31.7238 65.2596Z" fill="#1778F2"/>
<path d="M48.0167 52.4667H17.5167C16.9644 52.4667 16.5167 52.9144 16.5167 53.4667V60.4667C16.5167 61.019 16.9644 61.4667 17.5167 61.4667H48.0167C48.569 61.4667 49.0167 61.019 49.0167 60.4667V53.4667C49.0167 52.9144 48.569 52.4667 48.0167 52.4667Z" stroke="#1778F2" stroke-width="0.5"/>
<path d="M31.7238 65.2596L20.3096 76.6738C20.1221 76.8613 20.0167 77.1157 20.0167 77.3809V86.0153C20.0167 86.9114 21.1046 87.3551 21.7314 86.7147L41.3534 66.6661C41.973 66.0331 41.5245 64.9667 40.6388 64.9667H32.4309C32.1657 64.9667 31.9114 65.072 31.7238 65.2596Z" stroke="#1778F2" stroke-width="0.5"/>
<path d="M61.8282 75.9667V58.4764H55.7198V54.829H72.3751V58.4764H66.2521V75.9667H61.8282ZM78.1759 76.2889C76.5743 76.2889 75.1974 75.9618 74.045 75.3075C72.8927 74.6434 72.004 73.701 71.379 72.4803C70.7638 71.2596 70.4562 69.8143 70.4562 68.1444V68.1298C70.4562 66.4598 70.7638 65.0145 71.379 63.7938C72.004 62.5634 72.8781 61.6161 74.0011 60.952C75.1339 60.2782 76.4669 59.9413 78.0001 59.9413C79.5333 59.9413 80.8566 60.2684 81.9698 60.9227C83.0929 61.5673 83.9572 62.4803 84.5626 63.662C85.1779 64.8436 85.4855 66.2255 85.4855 67.8075V69.1259H72.5509V66.4305H83.464L81.4279 68.9501V67.3094C81.4279 66.3915 81.2863 65.6249 81.0031 65.0096C80.7198 64.3846 80.3243 63.9159 79.8165 63.6034C79.3185 63.2909 78.7374 63.1346 78.0734 63.1346C77.4093 63.1346 76.8185 63.2958 76.3009 63.618C75.7931 63.9403 75.3927 64.4139 75.0997 65.0389C74.8165 65.6542 74.6749 66.411 74.6749 67.3094V68.9647C74.6749 69.8339 74.8165 70.576 75.0997 71.1913C75.3927 71.8065 75.8077 72.2802 76.3448 72.6122C76.882 72.9344 77.5216 73.0956 78.2638 73.0956C78.8497 73.0956 79.3575 73.0028 79.7872 72.8173C80.2169 72.6317 80.5685 72.3973 80.8419 72.1141C81.1154 71.8309 81.3009 71.5428 81.3986 71.2499L81.4279 71.162H85.3536L85.3097 71.3231C85.1925 71.8993 84.963 72.4803 84.6212 73.0663C84.2794 73.6522 83.8156 74.1893 83.2296 74.6776C82.6534 75.1659 81.9454 75.5565 81.1056 75.8495C80.2755 76.1425 79.299 76.2889 78.1759 76.2889ZM87.4044 75.9667V73.535L95.2999 63.5594V63.4862H87.5216V60.2635H100.193V62.9735L92.7657 72.6561V72.744H100.368V75.9667H87.4044ZM102.111 75.9667L109.846 63.7059L108.835 67.2948V65.2733L102.155 54.829H107.356L111.853 62.4462H113.889L111.018 64.16L116.482 54.829H121.418L114.489 65.3466V67.3827L113.449 63.7938L121.33 75.9667H116.291L111.648 68.5546H109.611L112.541 66.8993L106.887 75.9667H102.111Z" fill="#2E363E"/>
<path d="M63.5856 91.9667V86.7196H61.6827V85.6254H66.8156V86.7196H64.9127V91.9667H63.5856ZM67.9889 91.9667V85.6254H72.1901V86.7196H69.316V88.2489H72.0275V89.2684H69.316V90.8724H72.1901V91.9667H67.9889ZM73.4117 91.9667V91.101L76.6022 86.7987V86.7196H73.4865V85.6254H78.2194V86.4867L75.0377 90.7933V90.8724H78.3073V91.9667H73.4117ZM81.6075 91.9667L83.9279 88.2885L83.6202 89.3651V88.7587L81.6163 85.6254H83.1808L84.5255 87.9105H85.1407L84.2794 88.4247L85.9142 85.6254H87.3995L85.3209 88.7806V89.3915L85.0089 88.3148L87.3688 91.9667H85.8571L84.4684 89.743H83.8531L84.7365 89.2465L83.0402 91.9667H81.6075ZM88.5553 91.9667V85.6254H89.8824V91.9667H88.5553ZM91.2448 91.9667V91.101L94.4352 86.7987V86.7196H91.3195V85.6254H96.0524V86.4867L92.8707 90.7933V90.8724H96.1403V91.9667H91.2448ZM97.5026 91.9667V85.6254H99.0231L100.776 90.266H100.856L102.605 85.6254H104.125V91.9667H102.943V87.6512H102.288L103.554 85.8011L101.229 91.9667H100.399L98.0782 85.8011L99.3395 87.6512H98.6847V91.9667H97.5026ZM105.215 91.9667L107.417 85.6254H108.546V86.891H108.159L106.608 91.9667H105.215ZM106.393 90.4286L106.718 89.4354H109.649L109.974 90.4286H106.393ZM109.785 91.9667L108.238 86.891V85.6254H108.977L111.183 91.9667H109.785ZM113.121 91.9667V86.7196H111.218V85.6254H116.351V86.7196H114.448V91.9667H113.121Z" fill="#2E363E"/>
</svg>
