<svg width="34" height="34" viewBox="0 0 34 34" fill="none" xmlns="http://www.w3.org/2000/svg">
<circle cx="16.75" cy="16.75" r="16.25" fill="white" stroke="#E2E2E2"/>
<path d="M11.9496 10.8457C12.2911 9.76972 13.1546 8.87972 14.2901 8.39222V9.73822C14.2901 9.87083 14.3428 9.99801 14.4365 10.0918C14.5303 10.1855 14.6575 10.2382 14.7901 10.2382C14.9227 10.2382 15.0499 10.1855 15.1436 10.0918C15.2374 9.99801 15.2901 9.87083 15.2901 9.73822V7.73822C15.2901 7.60561 15.3428 7.47844 15.4365 7.38467C15.5303 7.2909 15.6575 7.23822 15.7901 7.23822H16.7901C16.9227 7.23822 17.0499 7.2909 17.1436 7.38467C17.2374 7.47844 17.2901 7.60561 17.2901 7.73822V9.73822C17.2901 9.87083 17.3428 9.99801 17.4365 10.0918C17.5303 10.1855 17.6575 10.2382 17.7901 10.2382C17.9227 10.2382 18.0499 10.1855 18.1436 10.0918C18.2374 9.99801 18.2901 9.87083 18.2901 9.73822V8.39222C19.4421 8.88672 20.3136 9.79472 20.6451 10.8917C20.5166 10.9957 20.3021 11.1217 19.9676 11.2437C19.2216 11.5157 17.9701 11.7382 16.0271 11.7382C14.6276 11.7382 13.5031 11.5202 12.7446 11.2432C12.3781 11.1097 12.1146 10.9687 11.9496 10.8457Z" fill="#676767"/>
<path fill-rule="evenodd" clip-rule="evenodd" d="M20.31 12.1832C20.7525 12.0212 21.1015 11.8272 21.3495 11.6042C21.633 11.8757 21.79 12.1742 21.79 12.4882C21.79 13.0872 21.218 13.6317 20.285 14.0347C20.2884 14.1021 20.29 14.1699 20.29 14.2382C20.2896 14.7718 20.1823 15.2998 19.9747 15.7913C19.7671 16.2828 19.4632 16.7278 19.081 17.1001C18.6987 17.4724 18.2459 17.7644 17.7491 17.959C17.2523 18.1536 16.7216 18.2469 16.1883 18.2333C15.6549 18.2198 15.1296 18.0996 14.6434 17.88C14.1571 17.6603 13.7197 17.3456 13.357 16.9544C12.9942 16.5631 12.7133 16.1033 12.531 15.6019C12.3486 15.1005 12.2684 14.5676 12.295 14.0347C11.362 13.6317 10.79 13.0872 10.79 12.4882C10.79 12.1632 10.958 11.8547 11.2605 11.5762L11.317 11.6212C11.589 11.8317 11.961 12.0222 12.402 12.1827C13.2875 12.5062 14.5315 12.7382 16.027 12.7382C18.031 12.7382 19.4115 12.5107 20.31 12.1832ZM13.293 14.3752C13.3276 15.1469 13.6584 15.8755 14.2167 16.4093C14.7749 16.9432 15.5176 17.2411 16.29 17.2411C17.0625 17.2411 17.8051 16.9432 18.3634 16.4093C18.9217 15.8755 19.2525 15.1469 19.287 14.3752C18.425 14.6052 17.395 14.7382 16.29 14.7382C15.185 14.7382 14.155 14.6047 13.293 14.3752ZM7.29004 25.2382H17.79V19.4882L16.79 20.2382V22.1867C16.6262 22.2249 16.4582 22.2422 16.29 22.2382C16.0525 22.2382 15.8925 22.2132 15.79 22.1867V20.3492L13.4665 18.5422C10.55 19.1022 7.29004 20.4072 7.29004 22.2382V25.2382ZM10.79 24.2382H14.79V21.8282L11.5275 22.3722L12.4655 19.7932C11.8974 19.9397 11.338 20.1183 10.79 20.3282V24.2382ZM8.29004 24.2382H9.79004V20.7777L9.75304 20.7972C9.22104 21.0792 8.83204 21.3667 8.58704 21.6372C8.34704 21.9032 8.29004 22.0997 8.29004 22.2382V24.2382Z" fill="#676767"/>
<path d="M20.575 17.0632C20.864 16.7682 21.265 17.0657 21.177 17.4692L21.164 17.5282C21.1191 17.7339 21.1208 17.947 21.169 18.1519C21.2173 18.3568 21.3109 18.5483 21.4429 18.7123C21.5749 18.8762 21.7419 19.0086 21.9318 19.0995C22.1217 19.1904 22.3295 19.2375 22.54 19.2375C22.7505 19.2375 22.9584 19.1904 23.1483 19.0995C23.3381 19.0086 23.5052 18.8762 23.6372 18.7123C23.7692 18.5483 23.8628 18.3568 23.911 18.1519C23.9593 17.947 23.961 17.7339 23.916 17.5282L23.903 17.4692C23.815 17.0657 24.216 16.7687 24.505 17.0637C25.0092 17.5771 25.2911 18.2682 25.29 18.9877C25.2901 19.454 25.1717 19.9127 24.9457 20.3207C24.7198 20.7286 24.3939 21.0724 23.9985 21.3197C23.859 21.4067 23.79 21.5737 23.79 21.7382V24.2382C23.79 24.5034 23.6847 24.7578 23.4971 24.9453C23.3096 25.1329 23.0553 25.2382 22.79 25.2382H22.29C22.0248 25.2382 21.7705 25.1329 21.5829 24.9453C21.3954 24.7578 21.29 24.5034 21.29 24.2382V21.7382C21.29 21.5737 21.221 21.4067 21.0815 21.3197C20.6862 21.0724 20.3603 20.7286 20.1343 20.3207C19.9084 19.9127 19.7899 19.454 19.79 18.9877C19.79 18.2387 20.0895 17.5587 20.575 17.0632Z" fill="#676767"/>
</svg>
