<svg width="32" height="32" viewBox="0 0 32 32" fill="none" xmlns="http://www.w3.org/2000/svg">
<path d="M0 12C0 5.37258 5.37258 0 12 0H20C26.6274 0 32 5.37258 32 12V20C32 26.6274 26.6274 32 20 32H12C5.37258 32 0 26.6274 0 20V12Z" fill="#1778F2"/>
<path d="M18.0588 13.02L18.9788 13.94L9.91878 23H8.99878V22.08L18.0588 13.02ZM21.6588 7C21.4088 7 21.1488 7.1 20.9588 7.29L19.1288 9.12L22.8788 12.87L24.7088 11.04C25.0988 10.65 25.0988 10.02 24.7088 9.63L22.3688 7.29C22.1688 7.09 21.9188 7 21.6588 7ZM18.0588 10.19L6.99878 21.25V25H10.7488L21.8088 13.94L18.0588 10.19Z" fill="white"/>
</svg>
