<svg width="32" height="32" viewBox="0 0 32 32" fill="none" xmlns="http://www.w3.org/2000/svg">
<path d="M25.6632 11.9313C25.1374 10.6763 24.3724 9.53554 23.4109 8.57268C22.4523 7.60816 21.3135 6.8413 20.0593 6.31565C18.7745 5.77454 17.3941 5.49718 16 5.50002H15.9531C14.5351 5.50705 13.164 5.7883 11.8726 6.34143C10.6292 6.87247 9.50115 7.64069 8.55153 8.60315C7.59933 9.56384 6.8431 10.7006 6.32496 11.95C5.78711 13.2493 5.51458 14.6431 5.5234 16.0492C5.53043 17.6758 5.91949 19.2906 6.64606 20.7344V24.2969C6.64606 24.8922 7.12887 25.375 7.72184 25.375H11.2797C12.7301 26.107 14.3308 26.4921 15.9554 26.5H16.0047C17.4062 26.5 18.7632 26.2281 20.0429 25.6961C21.2908 25.1767 22.4253 24.4188 23.3828 23.4649C24.3484 22.5063 25.1078 21.386 25.6398 20.1367C26.1906 18.843 26.4718 17.4672 26.4789 16.0469C26.4836 14.6196 26.207 13.2344 25.6632 11.9313ZM11.3218 17.125C10.7031 17.125 10.1992 16.6211 10.1992 16C10.1992 15.3789 10.7031 14.875 11.3218 14.875C11.9406 14.875 12.4445 15.3789 12.4445 16C12.4445 16.6211 11.9429 17.125 11.3218 17.125ZM16 17.125C15.3812 17.125 14.8773 16.6211 14.8773 16C14.8773 15.3789 15.3812 14.875 16 14.875C16.6187 14.875 17.1226 15.3789 17.1226 16C17.1226 16.6211 16.6187 17.125 16 17.125ZM20.6781 17.125C20.0593 17.125 19.5554 16.6211 19.5554 16C19.5554 15.3789 20.0593 14.875 20.6781 14.875C21.2968 14.875 21.8007 15.3789 21.8007 16C21.8007 16.6211 21.2968 17.125 20.6781 17.125Z" fill="#939393"/>
</svg>
