<svg width="32" height="32" viewBox="0 0 32 32" fill="none" xmlns="http://www.w3.org/2000/svg">
<path d="M13 26H19C24 26 26 24 26 19V13C26 8 24 6 19 6H13C8 6 6 8 6 13V19C6 24 8 26 13 26Z" stroke="#939393" stroke-width="1.5" stroke-linecap="round" stroke-linejoin="round"/>
<path d="M21 6.43994V16.4199C21 18.3899 19.59 19.1599 17.86 18.1199L16.54 17.3299C16.24 17.1499 15.76 17.1499 15.46 17.3299L14.14 18.1199C12.41 19.1499 11 18.3899 11 16.4199V6.43994" stroke="#939393" stroke-width="1.5" stroke-linecap="round" stroke-linejoin="round"/>
<path d="M13 26H19C24 26 26 24 26 19V13C26 8 24 6 19 6H13C8 6 6 8 6 13V19C6 24 8 26 13 26Z" stroke="#939393" stroke-width="1.5" stroke-linecap="round" stroke-linejoin="round"/>
<path d="M21 6.43994V16.4199C21 18.3899 19.59 19.1599 17.86 18.1199L16.54 17.3299C16.24 17.1499 15.76 17.1499 15.46 17.3299L14.14 18.1199C12.41 19.1499 11 18.3899 11 16.4199V6.43994" stroke="#939393" stroke-width="1.5" stroke-linecap="round" stroke-linejoin="round"/>
</svg>
