<svg width="32" height="32" viewBox="0 0 32 32" fill="none" xmlns="http://www.w3.org/2000/svg">
<path d="M16.1601 14.87C16.0601 14.86 15.9401 14.86 15.8301 14.87C13.4501 14.79 11.5601 12.84 11.5601 10.44C11.5601 7.99 13.5401 6 16.0001 6C18.4501 6 20.4401 7.99 20.4401 10.44C20.4301 12.84 18.5401 14.79 16.1601 14.87Z" stroke="#939393" stroke-width="1.5" stroke-linecap="round" stroke-linejoin="round"/>
<path d="M11.16 18.56C8.73997 20.18 8.73997 22.82 11.16 24.43C13.91 26.27 18.42 26.27 21.17 24.43C23.59 22.81 23.59 20.17 21.17 18.56C18.43 16.73 13.92 16.73 11.16 18.56Z" stroke="#939393" stroke-width="1.5" stroke-linecap="round" stroke-linejoin="round"/>
</svg>
