<svg width="375" height="261" viewBox="0 0 375 261" fill="none" xmlns="http://www.w3.org/2000/svg">
<path d="M385.083 153.708C667.626 16.647 506.951 348.029 350.078 348.029C193.205 348.029 -155 394.742 -155 295.39C-155 196.038 -96.5118 -44.4597 49.5314 7.17889C180.552 53.5055 249.062 198.343 385.083 153.708Z" fill="url(#paint0_linear_1_1978)"/>
<g filter="url(#filter0_d_1_1978)">
<path d="M434 227.5C434 319.179 307.968 393.5 152.5 393.5C-2.96834 393.5 -251 386.5 -74.0001 141.72C-100.5 -1.2802 84.9999 255.5 249 107C354.474 11.4948 434 135.821 434 227.5Z" fill="url(#paint1_linear_1_1978)"/>
</g>
<defs>
<filter id="filter0_d_1_1978" x="-139.169" y="72.6355" width="577.169" height="328.865" filterUnits="userSpaceOnUse" color-interpolation-filters="sRGB">
<feFlood flood-opacity="0" result="BackgroundImageFix"/>
<feColorMatrix in="SourceAlpha" type="matrix" values="0 0 0 0 0 0 0 0 0 0 0 0 0 0 0 0 0 0 127 0" result="hardAlpha"/>
<feOffset dy="4"/>
<feGaussianBlur stdDeviation="2"/>
<feComposite in2="hardAlpha" operator="out"/>
<feColorMatrix type="matrix" values="0 0 0 0 0 0 0 0 0 0 0 0 0 0 0 0 0 0 0.25 0"/>
<feBlend mode="normal" in2="BackgroundImageFix" result="effect1_dropShadow_1_1978"/>
<feBlend mode="normal" in="SourceGraphic" in2="effect1_dropShadow_1_1978" result="shape"/>
</filter>
<linearGradient id="paint0_linear_1_1978" x1="-38.8336" y1="-1.80071e-06" x2="-8.36494" y2="214.845" gradientUnits="userSpaceOnUse">
<stop stop-color="#4196E3"/>
<stop offset="1" stop-color="#373598"/>
</linearGradient>
<linearGradient id="paint1_linear_1_1978" x1="-40.0351" y1="72.6355" x2="-10.4265" y2="263.937" gradientUnits="userSpaceOnUse">
<stop stop-color="#4196E3"/>
<stop offset="1" stop-color="#373598"/>
</linearGradient>
</defs>
</svg>
