<svg width="170" height="70" viewBox="0 0 170 70" fill="none" xmlns="http://www.w3.org/2000/svg">
<path d="M52.1929 8.19153H6.71047C5.88689 8.19153 5.21924 8.85835 5.21924 9.68089V20.1064C5.21924 20.929 5.88689 21.5958 6.71047 21.5958H52.1929C53.0165 21.5958 53.6842 20.929 53.6842 20.1064V9.68089C53.6842 8.85835 53.0165 8.19153 52.1929 8.19153Z" fill="#1778F2"/>
<path d="M27.8964 27.2448L10.8752 44.2446C10.5956 44.5239 10.4385 44.9028 10.4385 45.2978V58.1575C10.4385 59.4921 12.0608 60.1531 12.9954 59.1993L42.2564 29.3397C43.1802 28.3969 42.5115 26.8085 41.1906 26.8085H28.9509C28.5554 26.8085 28.176 26.9655 27.8964 27.2448Z" fill="#1778F2"/>
<path d="M52.1929 8.19153H6.71047C5.88689 8.19153 5.21924 8.85835 5.21924 9.68089V20.1064C5.21924 20.929 5.88689 21.5958 6.71047 21.5958H52.1929C53.0165 21.5958 53.6842 20.929 53.6842 20.1064V9.68089C53.6842 8.85835 53.0165 8.19153 52.1929 8.19153Z" stroke="#1778F2" stroke-width="0.5"/>
<path d="M27.8964 27.2448L10.8752 44.2446C10.5956 44.5239 10.4385 44.9028 10.4385 45.2978V58.1575C10.4385 59.4921 12.0608 60.1531 12.9954 59.1993L42.2564 29.3397C43.1802 28.3969 42.5115 26.8085 41.1906 26.8085H28.9509C28.5554 26.8085 28.176 26.9655 27.8964 27.2448Z" stroke="#1778F2" stroke-width="0.5"/>
<path d="M72.7892 43.1915V17.1423H63.6802V11.7098H88.517V17.1423H79.3862V43.1915H72.7892ZM97.1674 43.6715C94.779 43.6715 92.7257 43.1842 91.0072 42.2097C89.2889 41.2208 87.9636 39.8172 87.0316 37.9992C86.1142 36.1811 85.6555 34.0285 85.6555 31.5413V31.5195C85.6555 29.0324 86.1142 26.8799 87.0316 25.0617C87.9636 23.2292 89.267 21.8183 90.9418 20.8293C92.631 19.8257 94.6188 19.3239 96.9052 19.3239C99.1915 19.3239 101.165 19.8112 102.825 20.7857C104.5 21.7456 105.788 23.1055 106.691 24.8654C107.609 26.6253 108.068 28.6833 108.068 31.0395V33.0031H88.7792V28.9888H105.053L102.017 32.7413V30.2978C102.017 28.9306 101.806 27.7888 101.383 26.8726C100.961 25.9417 100.371 25.2435 99.6138 24.7781C98.8712 24.3127 98.0047 24.08 97.0144 24.08C96.0242 24.08 95.1432 24.32 94.3713 24.8C93.614 25.2799 93.017 25.9854 92.58 26.9162C92.1577 27.8325 91.9466 28.9596 91.9466 30.2978V32.763C91.9466 34.0576 92.1577 35.163 92.58 36.0792C93.017 36.9955 93.6358 37.701 94.4368 38.1954C95.2377 38.6755 96.1916 38.9154 97.2984 38.9154C98.1721 38.9154 98.9294 38.7772 99.5702 38.5009C100.211 38.2245 100.735 37.8755 101.143 37.4537C101.551 37.032 101.827 36.6029 101.973 36.1665L102.017 36.0356H107.871L107.805 36.2755C107.631 37.1337 107.288 37.9992 106.779 38.8718C106.269 39.7444 105.577 40.5445 104.704 41.2716C103.844 41.9988 102.789 42.5806 101.536 43.017C100.298 43.4533 98.842 43.6715 97.1674 43.6715ZM110.929 43.1915V39.57L122.703 24.7127V24.6035H111.104V19.8039H129.999V23.8399L118.924 38.261V38.3917H130.261V43.1915H110.929ZM132.861 43.1915L144.394 24.9309L142.887 30.2759V27.2652L132.926 11.7098H140.681L147.387 23.0546H150.423L146.142 25.6072L154.29 11.7098H161.651L151.32 27.3743V30.4068L149.769 25.0617L161.52 43.1915H154.005L147.081 32.1522H144.045L148.414 29.6869L139.982 43.1915H132.861Z" fill="#2E363E"/>
<path d="M75.4095 67.0213V59.2064H72.572V57.5768H80.2262V59.2064H77.3887V67.0213H75.4095ZM81.976 67.0213V57.5768H88.2408V59.2064H83.955V61.4841H87.9983V63.0027H83.955V65.3916H88.2408V67.0213H81.976ZM90.0626 67.0213V65.7319L94.8202 59.3243V59.2064H90.174V57.5768H97.2319V58.8596L92.4874 65.2738V65.3916H97.3629V67.0213H90.0626ZM102.284 67.0213L105.745 61.5431L105.286 63.1466V62.2434L102.298 57.5768H104.631L106.636 60.9801H107.553L106.269 61.746L108.707 57.5768H110.922L107.822 62.2762V63.1859L107.357 61.5823L110.876 67.0213H108.621L106.551 63.7095H105.633L106.95 62.9699L104.421 67.0213H102.284ZM112.645 67.0213V57.5768H114.624V67.0213H112.645ZM116.656 67.0213V65.7319L121.413 59.3243V59.2064H116.767V57.5768H123.825V58.8596L119.08 65.2738V65.3916H123.956V67.0213H116.656ZM125.988 67.0213V57.5768H128.255L130.87 64.4883H130.988L133.596 57.5768H135.863V67.0213H134.101V60.5941H133.124L135.011 57.8386L131.545 67.0213H130.306L126.846 57.8386L128.727 60.5941H127.75V67.0213H125.988ZM137.488 67.0213L140.772 57.5768H142.456V59.4617H141.879L139.566 67.0213H137.488ZM139.245 64.7305L139.73 63.2514H144.101L144.586 64.7305H139.245ZM144.304 67.0213L141.997 59.4617V57.5768H143.098L146.388 67.0213H144.304ZM149.278 67.0213V59.2064H146.44V57.5768H154.094V59.2064H151.257V67.0213H149.278Z" fill="#2E363E"/>
</svg>
