<svg width="30" height="30" viewBox="0 0 30 30" fill="none" xmlns="http://www.w3.org/2000/svg">
<path d="M0.603105 10.1857C1.04877 10.3345 1.83381 10.6658 2.58141 11.4134C3.329 12.161 3.66035 12.946 3.80918 13.3917C3.91635 13.7173 4.22807 13.9947 4.64391 13.9948C5.05975 13.9947 5.37146 13.7173 5.47863 13.3917C5.62746 12.9461 5.95881 12.161 6.70641 11.4134C7.454 10.6658 8.2391 10.3345 8.68471 10.1857C9.01025 10.0785 9.28764 9.76678 9.28781 9.35094C9.28764 8.9351 9.01025 8.62338 8.68471 8.51621C8.23904 8.36738 7.454 8.03603 6.70641 7.28844C5.95881 6.54084 5.62746 5.75586 5.47863 5.31014C5.37146 4.98459 5.05975 4.70721 4.64391 4.70703C4.22807 4.70721 3.91635 4.98459 3.80918 5.31014C3.66035 5.7558 3.329 6.54084 2.58141 7.28844C1.83381 8.03603 1.04871 8.36738 0.603105 8.51621C0.277559 8.62338 0.000175781 8.9351 0 9.35094C0.000175781 9.76678 0.277559 10.0784 0.603105 10.1857Z" fill="#D80027"/>
<path d="M14.1311 9.35155C14.1311 9.83694 14.5246 10.2305 15.01 10.2305H16.014V11.2343C16.014 11.7197 16.4075 12.1132 16.8929 12.1132C17.3783 12.1132 17.7718 11.7197 17.7718 11.2343V10.2305H18.7757C19.261 10.2305 19.6546 9.83694 19.6546 9.35155C19.6546 8.86615 19.261 8.47264 18.7757 8.47264H17.7718V7.46875C17.7718 6.98336 17.3783 6.58984 16.8929 6.58984C16.4075 6.58984 16.014 6.98336 16.014 7.46875V8.47264H15.01C14.5246 8.47264 14.1311 8.86615 14.1311 9.35155Z" fill="#D80027"/>
<path d="M10.303 3.64061H11.3069V4.64449C11.3069 5.12988 11.7004 5.5234 12.1858 5.5234C12.6712 5.5234 13.0647 5.12988 13.0647 4.64449V3.64061H14.0686C14.554 3.64061 14.9475 3.24709 14.9475 2.7617C14.9475 2.27631 14.554 1.88279 14.0686 1.88279H13.0647V0.878906C13.0647 0.393516 12.6712 0 12.1858 0C11.7004 0 11.3069 0.393516 11.3069 0.878906V1.88279H10.303C9.81759 1.88279 9.42407 2.27631 9.42407 2.7617C9.42407 3.24709 9.81759 3.64061 10.303 3.64061Z" fill="#D80027"/>
<path d="M14.7357 26.4987C14.7669 26.4948 15.6559 26.3785 16.4885 25.8173C16.5201 25.796 16.5497 25.7732 16.5803 25.7512L18.1782 17.7617H18.7756C19.261 17.7617 19.6545 17.3682 19.6545 16.8828C19.6545 16.3974 19.261 16.0039 18.7756 16.0039H1.83032C1.34493 16.0039 0.951416 16.3974 0.951416 16.8828C0.951416 17.3682 1.34493 17.7617 1.83032 17.7617H2.4278L4.00573 25.6515C4.09679 25.5941 4.18251 25.5259 4.26108 25.4474L9.68159 20.027C10.0248 19.6837 10.5813 19.6837 10.9245 20.027C11.2678 20.3702 11.2678 20.9267 10.9245 21.2699L5.50403 26.6904C5.22489 26.9695 4.83173 27.2436 4.3604 27.4249L4.73411 29.2935C4.81626 29.7043 5.17696 30 5.59591 30H12.5233C12.4404 29.7648 12.3896 29.5139 12.3766 29.2525C12.3066 27.8516 13.342 26.6444 14.7357 26.4987Z" fill="#D80027"/>
<path d="M2.66946 25.764C2.12179 25.5372 1.76788 25.0075 1.76788 24.4139C1.76788 24.2369 1.80104 24.065 1.8638 23.9049L1.42212 21.6965L0.933096 22.1856C0.337842 22.7808 0.0100098 23.5722 0.0100098 24.4146C0.0100098 25.721 0.789893 26.8881 1.99675 27.388C2.87425 27.7515 3.69521 27.6808 4.36036 27.4249L4.00569 25.6515C3.6106 25.9008 3.1146 25.9483 2.66946 25.764Z" fill="#D80027"/>
<path d="M25.303 16.1895V0.878906C25.303 0.393516 24.9095 0 24.4241 0C23.9387 0 23.5452 0.393516 23.5452 0.878906V16.1895C23.8326 16.1498 24.1259 16.1289 24.4241 16.1289C24.7222 16.1289 25.0155 16.1498 25.303 16.1895Z" fill="#D80027"/>
<path d="M24.4241 17.8867C21.8631 17.8867 19.7796 19.9703 19.7796 22.5313C19.7796 27.704 15.0462 28.2333 14.9226 28.2466C14.4565 28.2931 14.1088 28.6971 14.1322 29.1649C14.1556 29.6327 14.5416 30 15.01 30H21.5999C28.2185 30 29.0686 25.0173 29.0686 22.5312C29.0686 19.9702 26.9852 17.8867 24.4241 17.8867Z" fill="#D80027"/>
</svg>
