<svg width="30" height="30" viewBox="0 0 30 30" fill="none" xmlns="http://www.w3.org/2000/svg">
<path d="M4.6875 7.0675C4.6875 5.76375 5.76375 4.6875 7.0675 4.6875H22.9325C24.2363 4.6875 25.3125 5.76375 25.3125 7.0675V14.28C25.3086 14.9099 25.0565 15.5128 24.611 15.9581C24.1655 16.4034 23.5624 16.6551 22.9325 16.6587H7.0675C6.4374 16.6551 5.83413 16.4032 5.38857 15.9577C4.94302 15.5121 4.69111 14.9089 4.6875 14.2788V7.0675ZM19.8312 14.7837V12.8363C19.8275 12.7035 19.7731 12.5772 19.6792 12.4833C19.5853 12.3894 19.459 12.335 19.3263 12.3312H10.6737C10.5412 12.3353 10.4153 12.3899 10.3216 12.4838C10.228 12.5776 10.1738 12.7037 10.17 12.8363V14.7837H19.8312ZM10.6725 18.3875C10.9211 18.3875 11.1596 18.4863 11.3354 18.6621C11.5112 18.8379 11.61 19.0764 11.61 19.325C11.61 20.1063 11.5925 21.1875 11.2287 22.0813C11.0339 22.5909 10.6963 23.0336 10.2562 23.3562C9.77125 23.7025 9.18125 23.8687 8.51 23.8687C8.26136 23.8687 8.0229 23.77 7.84709 23.5942C7.67127 23.4183 7.5725 23.1799 7.5725 22.9312C7.5725 22.6826 7.67127 22.4442 7.84709 22.2683C8.0229 22.0925 8.26136 21.9937 8.51 21.9937C8.86375 21.9937 9.05625 21.91 9.16875 21.83C9.28625 21.7463 9.3975 21.6087 9.49125 21.3762C9.6975 20.8687 9.735 20.1463 9.735 19.3263C9.735 19.0776 9.83377 18.8392 10.0096 18.6633C10.1854 18.4875 10.4239 18.3888 10.6725 18.3888M15 18.3888C15.2486 18.3888 15.4871 18.4875 15.6629 18.6633C15.8387 18.8392 15.9375 19.0776 15.9375 19.3263V24.375C15.9375 24.6236 15.8387 24.8621 15.6629 25.0379C15.4871 25.2137 15.2486 25.3125 15 25.3125C14.7514 25.3125 14.5129 25.2137 14.3371 25.0379C14.1613 24.8621 14.0625 24.6236 14.0625 24.375V19.3263C14.0625 19.0776 14.1613 18.8392 14.3371 18.6633C14.5129 18.4875 14.7514 18.3888 15 18.3888ZM19.3263 18.3888C19.5749 18.3888 19.8133 18.4875 19.9892 18.6633C20.165 18.8392 20.2638 19.0776 20.2638 19.3263C20.2638 20.1475 20.3012 20.87 20.5087 21.3775C20.6025 21.61 20.7138 21.7475 20.8313 21.8313C20.9438 21.9113 21.1362 21.995 21.49 21.995C21.7386 21.995 21.9771 22.0938 22.1529 22.2696C22.3287 22.4454 22.4275 22.6839 22.4275 22.9325C22.4275 23.1811 22.3287 23.4196 22.1529 23.5954C21.9771 23.7712 21.7386 23.87 21.49 23.87C20.8187 23.87 20.2275 23.7038 19.7438 23.3575C19.3037 23.0348 18.9661 22.5922 18.7713 22.0825C18.4088 21.1888 18.3888 20.1075 18.3888 19.3263C18.3888 19.0776 18.4875 18.8392 18.6633 18.6633C18.8392 18.4875 19.0776 18.3888 19.3263 18.3888Z" fill="#8B2CF5"/>
</svg>
