<svg width="23" height="27" viewBox="0 0 23 27" fill="none" xmlns="http://www.w3.org/2000/svg">
<path d="M11.2729 14.8044C13.084 14.8044 17.3421 12.6248 17.3421 7.40212C17.3421 6.6737 17.3243 5.97006 17.2643 5.30515C17.1658 3.99643 16.8977 2.83657 16.2302 1.94765C15.3744 0.738403 13.8768 0 11.2729 0C8.66883 0 7.17123 0.738478 6.31534 1.94795C5.64834 2.83635 5.38026 3.99538 5.28161 5.3032C5.22141 5.9687 5.20361 6.67302 5.20361 7.40219C5.20361 12.6248 9.46181 14.8044 11.2729 14.8044ZM13.254 2.71181C13.0772 3.15856 12.9887 3.38197 12.8118 3.82864C11.67 3.50606 10.8756 3.50606 9.73387 3.82864C9.557 3.38197 9.46856 3.15856 9.2917 2.71181C10.7195 2.27954 11.8263 2.27962 13.254 2.71181ZM6.10657 6.26952C6.17631 6.42221 6.47337 7.01062 6.93341 7.0658C7.46191 7.12923 8.33927 5.19389 11.2728 5.18916C14.2064 5.19389 15.0837 7.12923 15.6123 7.0658C16.0722 7.01062 16.3693 6.42214 16.4391 6.26952C16.4534 6.64442 16.4586 7.02383 16.4586 7.40219C16.4586 9.955 15.3313 11.5368 14.3857 12.4141C13.1942 13.5197 11.8713 13.9209 11.2728 13.9209C10.6744 13.9209 9.35145 13.5197 8.15992 12.4141C7.21425 11.5368 6.08705 9.955 6.08705 7.40219C6.08705 7.02383 6.09231 6.64435 6.10657 6.26952Z" fill="#4FBF67"/>
<path d="M22.5406 22.3958C22.2307 20.4691 21.5929 17.9873 20.3135 17.1054C19.4398 16.503 16.3915 14.8744 15.0898 14.179L15.0673 14.1669C14.9185 14.0874 14.7368 14.1034 14.6041 14.2076C13.9223 14.7429 13.1753 15.1037 12.384 15.2799C12.2443 15.311 12.1295 15.4103 12.0787 15.5442L11.2731 17.668L10.4673 15.5442C10.4165 15.4103 10.3018 15.311 10.162 15.2799C9.37075 15.1037 8.62379 14.7429 7.94191 14.2076C7.80911 14.1034 7.62751 14.0874 7.47872 14.1669C6.19245 14.8542 3.10694 16.516 2.23641 17.1028C0.763583 18.095 0.119546 21.686 0.00536205 22.3958C-0.00589866 22.4662 0.00063253 22.5382 0.0244302 22.6054C0.0771303 22.7542 1.42887 26.25 11.2731 26.25C21.1172 26.25 22.469 22.7542 22.5217 22.6054C22.5453 22.5382 22.5519 22.4662 22.5406 22.3958ZM17.3399 20.8201L16.3899 22.9167C16.3744 22.9506 16.3406 22.9719 16.3041 22.9719C16.2994 22.9719 16.2947 22.9715 16.29 22.9708C16.2483 22.9645 16.216 22.9313 16.2107 22.8895L16.0357 21.5031H15.5987C15.5736 21.5031 15.5496 21.493 15.5318 21.4751C15.5141 21.4574 15.5043 21.4331 15.5046 21.408L15.5257 19.3114C15.5262 19.2598 15.5682 19.2182 15.6198 19.2182H17.1012C17.131 19.2182 17.1592 19.2325 17.1769 19.2565C17.1946 19.2804 17.1999 19.3114 17.1912 19.34L16.7771 20.687H17.2541C17.2861 20.687 17.3159 20.7033 17.3333 20.7301C17.3507 20.7571 17.3531 20.7909 17.3399 20.8201Z" fill="#4FBF67"/>
</svg>
