<svg width="27" height="27" viewBox="0 0 27 27" fill="none" xmlns="http://www.w3.org/2000/svg">
<path d="M5.61677 4.22876C6.3187 3.97845 7.07727 3.93247 7.80429 4.09618C8.53132 4.25989 9.19697 4.62656 9.72387 5.15358C10.2508 5.6806 10.6173 6.34632 10.7808 7.07339C10.9444 7.80045 10.8982 8.55901 10.6478 9.26089L22.8484 21.4615L20.4611 23.8488L8.26052 11.6481C7.55846 11.8986 6.79974 11.9446 6.07255 11.7809C5.34537 11.6171 4.6796 11.2504 4.15265 10.7232C3.62569 10.196 3.2592 9.53005 3.09579 8.80279C2.93238 8.07553 2.97875 7.31683 3.22952 6.61489L5.74502 9.13151C6.06328 9.4389 6.48955 9.60899 6.93201 9.60515C7.37446 9.6013 7.79771 9.42383 8.11059 9.11096C8.42346 8.79808 8.60094 8.37483 8.60478 7.93238C8.60862 7.48992 8.43853 7.06365 8.13114 6.74539L5.61677 4.22876ZM17.2796 6.34714L20.8594 4.35814L22.4501 5.95001L20.4611 9.52976L18.4721 9.92689L16.0871 12.313L14.4953 10.7223L16.8814 8.33614L17.2796 6.34714ZM9.32477 15.0974L11.7109 17.4846L6.14214 23.0534C5.83506 23.3576 5.42295 23.5324 4.9908 23.5417C4.55864 23.551 4.1394 23.3941 3.81953 23.1033C3.49965 22.8126 3.30354 22.4102 3.27163 21.9791C3.23972 21.5481 3.37444 21.1212 3.64802 20.7865L3.75714 20.6661L9.32477 15.0974Z" fill="#1778F2"/>
</svg>
