<svg width="26" height="26" viewBox="0 0 26 26" fill="none" xmlns="http://www.w3.org/2000/svg">
<rect width="26" height="26" rx="13" fill="white"/>
<path d="M11.5029 17.4999C11.5029 17.303 11.5417 17.1079 11.6171 16.9259C11.6925 16.7439 11.803 16.5786 11.9423 16.4393C12.0816 16.3 12.2469 16.1895 12.4289 16.1141C12.6109 16.0387 12.8059 15.9999 13.0029 15.9999C13.1999 15.9999 13.395 16.0387 13.577 16.1141C13.7589 16.1895 13.9243 16.3 14.0636 16.4393C14.2029 16.5786 14.3134 16.7439 14.3887 16.9259C14.4641 17.1079 14.5029 17.303 14.5029 17.4999C14.5029 17.8978 14.3449 18.2793 14.0636 18.5606C13.7823 18.8419 13.4008 18.9999 13.0029 18.9999C12.6051 18.9999 12.2236 18.8419 11.9423 18.5606C11.661 18.2793 11.5029 17.8978 11.5029 17.4999ZM11.6499 8.49243C11.63 8.30319 11.65 8.11187 11.7087 7.93087C11.7675 7.74988 11.8636 7.58325 11.9909 7.44181C12.1182 7.30037 12.2738 7.18727 12.4476 7.10986C12.6215 7.03244 12.8096 6.99243 12.9999 6.99243C13.1902 6.99243 13.3784 7.03244 13.5522 7.10986C13.726 7.18727 13.8817 7.30037 14.009 7.44181C14.1362 7.58325 14.2324 7.74988 14.2911 7.93087C14.3499 8.11187 14.3699 8.30319 14.3499 8.49243L13.8249 13.7529C13.8036 13.9569 13.7075 14.1457 13.5551 14.2829C13.4028 14.4202 13.205 14.4961 12.9999 14.4961C12.7949 14.4961 12.5971 14.4202 12.4447 14.2829C12.2924 14.1457 12.1963 13.9569 12.1749 13.7529L11.6499 8.49243Z" fill="#FF383C"/>
</svg>
